<?xml version="1.0" encoding="UTF-8"?>
<svg id="Layer_2" data-name="Layer 2" xmlns="http://www.w3.org/2000/svg" xmlns:xlink="http://www.w3.org/1999/xlink" viewBox="0 0 672.65 185.32">
  <defs>
    <style>
      .cls-1 {
        fill: url(#GradientFill_1);
      }

      .cls-1, .cls-2, .cls-3, .cls-4, .cls-5, .cls-6, .cls-7 {
        fill-rule: evenodd;
      }

      .cls-2 {
        fill: url(#GradientFill_2);
      }

      .cls-8 {
        fill: #e1270e;
      }

      .cls-3 {
        fill: url(#GradientFill_2-2);
      }

      .cls-4 {
        fill: #95cec2;
      }

      .cls-5 {
        fill: url(#GradientFill_3);
      }

      .cls-6 {
        fill: #ffe168;
      }

      .cls-9 {
        fill: #cd080d;
      }

      .cls-7 {
        fill: #ed6d49;
      }
    </style>
    <linearGradient id="GradientFill_1" data-name="GradientFill 1" x1="105.88" y1="-2.26" x2="124.11" y2="151.68" gradientUnits="userSpaceOnUse">
      <stop offset="0" stop-color="#4287f5"/>
      <stop offset=".56" stop-color="#4287f5"/>
      <stop offset="1" stop-color="#e1270e"/>
    </linearGradient>
    <linearGradient id="GradientFill_2" data-name="GradientFill 2" x1="102.83" y1="44.34" x2="131.61" y2="94.91" gradientUnits="userSpaceOnUse">
      <stop offset="0" stop-color="#fff"/>
      <stop offset="1" stop-color="#fff"/>
    </linearGradient>
    <linearGradient id="GradientFill_3" data-name="GradientFill 3" x1="112.36" y1="127.47" x2="118.41" y2="138.1" gradientUnits="userSpaceOnUse">
      <stop offset="0" stop-color="#4287f5"/>
      <stop offset="1" stop-color="#fff"/>
    </linearGradient>
    <linearGradient id="GradientFill_2-2" data-name="GradientFill 2" x1="116.63" y1="135.48" x2="118.82" y2="139.32" xlink:href="#GradientFill_2"/>
  </defs>
  <g id="Layer_1-2" data-name="Layer 1">
    <g>
      <path class="cls-6" d="m118.7,45.88c3.38-.02,6.13,2.59,6.15,5.84.02,3.25-2.7,5.89-6.08,5.91-3.38.02-6.13-2.59-6.15-5.84-.02-3.25,2.7-5.89,6.08-5.91Z"/>
      <path class="cls-4" d="m136.02,45.78c3.38-.02,6.13,2.59,6.15,5.84.02,3.25-2.7,5.89-6.08,5.91-3.38.02-6.13-2.59-6.15-5.84-.02-3.25,2.7-5.89,6.08-5.91Z"/>
      <path class="cls-7" d="m100.92,45.99c3.38-.02,6.13,2.59,6.15,5.84.02,3.25-2.7,5.89-6.08,5.91-3.38.02-6.13-2.59-6.15-5.84-.02-3.25,2.7-5.89,6.08-5.91Z"/>
      <g>
        <path class="cls-9" d="m194.84,152.08c-4.34,0-7.93-.83-10.78-2.5-2.85-1.67-4.96-4.16-6.35-7.49s-2.08-7.47-2.08-12.43v-32.97h13.34v33.19c0,2.52.34,4.62,1.01,6.33.68,1.7,1.71,2.96,3.09,3.77,1.39.82,3.15,1.22,5.28,1.22,2.42,0,4.53-.57,6.35-1.72,1.81-1.15,3.24-2.78,4.27-4.88,1.03-2.11,1.55-4.57,1.55-7.38v-30.52h13.34v54.28h-13.02v-11.32h1.49c-1.49,4-3.75,7.07-6.78,9.21-3.02,2.15-6.6,3.22-10.72,3.22Z"/>
        <path class="cls-9" d="m263.45,152.08c-5.91,0-10.99-1.15-15.26-3.44-4.27-2.29-7.56-5.55-9.87-9.77-2.31-4.22-3.47-9.21-3.47-14.99s1.12-10.54,3.36-14.76c2.24-4.22,5.33-7.53,9.28-9.93,3.95-2.4,8.45-3.61,13.5-3.61s9.25,1.11,12.8,3.33c3.56,2.22,6.31,5.37,8.27,9.44,1.96,4.07,2.93,8.92,2.93,14.54v4.11h-39.37v-7.99h29.98l-1.71,1.67c0-5.03-1.07-8.9-3.2-11.6-2.13-2.7-5.19-4.05-9.18-4.05-2.99,0-5.53.72-7.63,2.16-2.1,1.44-3.7,3.48-4.8,6.1-1.1,2.63-1.65,5.75-1.65,9.38v.78c0,4.07.6,7.44,1.81,10.1,1.21,2.66,3.02,4.66,5.44,5.99,2.42,1.33,5.41,2,8.96,2,2.92,0,5.83-.46,8.75-1.39,2.92-.92,5.58-2.39,8-4.38l3.73,9.32c-2.49,2.15-5.62,3.85-9.39,5.11-3.77,1.26-7.54,1.89-11.31,1.89Z"/>
        <path class="cls-9" d="m319.68,152.08c-5.48,0-10.24-1.17-14.3-3.5s-7.19-5.64-9.39-9.93c-2.21-4.29-3.31-9.32-3.31-15.1s1.1-10.75,3.31-14.93c2.2-4.18,5.33-7.4,9.39-9.66,4.05-2.26,8.82-3.39,14.3-3.39,3.34,0,6.65.56,9.92,1.67,3.27,1.11,5.98,2.66,8.11,4.66l-3.95,9.66c-1.85-1.7-3.93-3-6.24-3.88-2.31-.89-4.53-1.33-6.67-1.33-4.62,0-8.2,1.5-10.72,4.5-2.53,3-3.79,7.27-3.79,12.82s1.26,9.79,3.79,12.93c2.52,3.15,6.1,4.72,10.72,4.72,2.06,0,4.27-.44,6.62-1.33,2.35-.89,4.44-2.22,6.3-4l3.95,9.77c-2.13,1.92-4.85,3.46-8.16,4.61-3.31,1.15-6.6,1.72-9.87,1.72Z"/>
        <path class="cls-9" d="m345.93,150.97v-78.25h13.34v47.06h.21l21.02-23.09h16.11l-26.25,28.86v-5.77l27.74,31.19h-16.33l-22.3-24.2h-.21v24.2h-13.34Z"/>
        <path class="cls-8" d="m422.22,152.08c-2.92,0-5.75-.26-8.48-.78-2.74-.52-5.25-1.24-7.52-2.16-2.28-.92-4.27-2.09-5.98-3.5l3.42-9.1c1.78,1.18,3.7,2.22,5.76,3.11,2.06.89,4.2,1.55,6.4,2,2.2.44,4.38.67,6.51.67,3.41,0,5.96-.61,7.63-1.83,1.67-1.22,2.51-2.83,2.51-4.83,0-1.7-.55-3.01-1.65-3.94-1.1-.92-2.76-1.61-4.96-2.05l-10.67-2.11c-4.41-.89-7.77-2.57-10.08-5.05-2.31-2.48-3.47-5.68-3.47-9.6,0-3.55.94-6.62,2.83-9.21,1.88-2.59,4.5-4.59,7.84-5.99,3.34-1.41,7.18-2.11,11.52-2.11,2.49,0,4.91.24,7.26.72,2.35.48,4.57,1.18,6.67,2.11,2.1.93,3.93,2.13,5.5,3.61l-3.63,9.1c-1.35-1.18-2.92-2.2-4.7-3.05-1.78-.85-3.61-1.52-5.5-2-1.89-.48-3.72-.72-5.5-.72-3.49,0-6.07.63-7.74,1.89-1.67,1.26-2.51,2.92-2.51,4.99,0,1.55.5,2.85,1.49,3.89,1,1.04,2.52,1.74,4.59,2.11l10.67,2.11c4.62.89,8.13,2.52,10.51,4.88,2.38,2.37,3.57,5.55,3.57,9.55,0,3.63-.92,6.73-2.77,9.32-1.85,2.59-4.45,4.57-7.79,5.94-3.34,1.37-7.26,2.05-11.74,2.05Z"/>
        <path class="cls-8" d="m454.34,85.04v-13.54h14.94v13.54h-14.94Zm.85,65.93v-54.28h13.34v54.28h-13.34Z"/>
        <path class="cls-8" d="m500.54,152.08c-6.19,0-10.76-1.76-13.71-5.27-2.95-3.51-4.43-8.68-4.43-15.49v-58.61h13.34v57.94c0,2.15.3,3.98.91,5.5.6,1.52,1.51,2.65,2.72,3.39,1.21.74,2.7,1.11,4.48,1.11.78,0,1.56-.04,2.35-.11.78-.07,1.53-.22,2.24-.44l-.21,10.99c-1.28.29-2.54.54-3.79.72-1.25.18-2.54.28-3.9.28Z"/>
        <path class="cls-8" d="m546.53,152.08c-4.41,0-8.27-1.15-11.58-3.44-3.31-2.29-5.5-5.36-6.56-9.21h1.07v11.54h-13.02v-78.25h13.34v34.96h-1.28c1.14-3.62,3.34-6.55,6.62-8.77,3.27-2.22,7.08-3.33,11.42-3.33,4.62,0,8.64,1.15,12.06,3.44,3.41,2.29,6.08,5.53,8,9.71,1.92,4.18,2.88,9.2,2.88,15.04s-.96,10.79-2.88,15.04c-1.92,4.26-4.61,7.53-8.06,9.82-3.45,2.29-7.45,3.44-12,3.44Zm-3.73-10.54c3.98,0,7.18-1.5,9.6-4.5,2.42-3,3.63-7.42,3.63-13.26s-1.21-10.34-3.63-13.26c-2.42-2.92-5.62-4.38-9.6-4.38s-7.19,1.46-9.6,4.38c-2.42,2.92-3.63,7.35-3.63,13.26s1.21,10.27,3.63,13.26c2.42,3,5.62,4.5,9.6,4.5Z"/>
        <path class="cls-8" d="m606.18,152.08c-5.91,0-10.99-1.15-15.26-3.44-4.27-2.29-7.56-5.55-9.87-9.77-2.31-4.22-3.47-9.21-3.47-14.99s1.12-10.54,3.36-14.76c2.24-4.22,5.33-7.53,9.28-9.93,3.95-2.4,8.45-3.61,13.5-3.61s9.25,1.11,12.8,3.33c3.56,2.22,6.31,5.37,8.27,9.44,1.96,4.07,2.93,8.92,2.93,14.54v4.11h-39.37v-7.99h29.98l-1.71,1.67c0-5.03-1.07-8.9-3.2-11.6-2.13-2.7-5.19-4.05-9.18-4.05-2.99,0-5.53.72-7.63,2.16-2.1,1.44-3.7,3.48-4.8,6.1-1.1,2.63-1.65,5.75-1.65,9.38v.78c0,4.07.6,7.44,1.81,10.1,1.21,2.66,3.02,4.66,5.44,5.99,2.42,1.33,5.41,2,8.96,2,2.92,0,5.83-.46,8.75-1.39,2.92-.92,5.58-2.39,8-4.38l3.74,9.32c-2.49,2.15-5.62,3.85-9.39,5.11-3.77,1.26-7.54,1.89-11.31,1.89Z"/>
        <path class="cls-8" d="m638.29,150.97v-54.28h13.02v13.1h-1.07c1-4.44,2.95-7.83,5.87-10.16,2.92-2.33,6.79-3.68,11.63-4.05l4.06-.33.85,11.77-7.68.78c-4.34.44-7.61,1.83-9.82,4.16-2.21,2.33-3.31,5.61-3.31,9.82v29.19h-13.55Z"/>
      </g>
      <g>
        <path class="cls-1" d="m145.67,109.45c50.29,38.53-49.21,87.79-70.36,73.27-7.02-11.26,29.07-46.36,48.71-68.49C106.48,76.87-28.44,76.62,5.43,39.93,32.73,10.35,175.29-16.47,214.69,12.33c28.24,20.64-42.77,79.91-69.02,97.12Z"/>
        <path class="cls-2" d="m134.24,103.85c19.63-29.26,29.18-40.36,22.54-51.99-16.12-28.27-92.51-14.33-91.58,11.17.44,12.12,22.69,24.3,69.03,40.82Z"/>
        <path class="cls-5" d="m124.02,114.23c1.2,3.08,2.55,7.43,1.83,12.14-.87,1.11-1.86,1.82-3.49,3.1-6.19,4.84-15.78,10.93-12.84,18.83-19.01-2.07,7.28-26.09,14.5-34.06Z"/>
        <path class="cls-3" d="m125.85,126.36c-1.07,7.25-5.11,16.14-16.33,21.93-1.86-5.33.94-7.84,2.99-10.55,4.38-4.42,8.77-7.88,13.34-11.38Z"/>
      </g>
    </g>
  </g>
</svg>